<?xml version="1.0" encoding="iso-8859-1"?>
<!-- Uploaded to: SVG Repo, www.svgrepo.com, Generator: SVG Repo Mixer Tools -->
<svg fill="#000000" height="800px" width="800px" version="1.1" id="Layer_1" xmlns="http://www.w3.org/2000/svg" xmlns:xlink="http://www.w3.org/1999/xlink" 
	 viewBox="0 0 512 512" xml:space="preserve">
<g>
	<g>
		<circle cx="256" cy="256" r="17.067"/>
	</g>
</g>
<g>
	<g>
		<circle cx="136.533" cy="256" r="25.6"/>
	</g>
</g>
<g>
	<g>
		<circle cx="375.467" cy="256" r="25.6"/>
	</g>
</g>
<g>
	<g>
		<path d="M452.267,153.6V93.867H59.733V153.6H0v204.8h59.733v59.733h392.533V358.4H512V153.6H452.267z M76.8,110.933h358.4V153.6
			H76.8V110.933z M435.2,401.067H76.8V358.4h358.4V401.067z M469.333,307.2c0,5.12-3.413,8.533-8.533,8.533
			c-5.12,0-8.533-3.413-8.533-8.533v-42.667H417.28c-4.267,19.627-21.333,34.133-41.813,34.133
			c-20.48,0-37.547-14.507-41.813-34.133H289.28c-3.413,14.507-17.067,25.6-33.28,25.6s-29.013-11.093-33.28-25.6h-44.373
			c-4.267,19.627-21.333,34.133-41.813,34.133S98.987,284.16,94.72,264.533H59.733V307.2c0,5.12-3.413,8.533-8.533,8.533
			s-8.533-3.413-8.533-8.533V204.8c0-5.12,3.413-8.533,8.533-8.533s8.533,3.413,8.533,8.533v42.667H94.72
			c4.267-19.627,21.333-34.133,41.813-34.133c20.48,0,37.547,14.507,41.813,34.133h44.373c3.413-14.507,17.067-25.6,33.28-25.6
			s29.013,11.093,33.28,25.6h44.373c4.267-19.627,21.333-34.133,41.813-34.133c20.48,0,37.547,14.507,41.813,34.133h34.987V204.8
			c0-5.12,3.413-8.533,8.533-8.533c5.12,0,8.533,3.413,8.533,8.533V307.2z"/>
	</g>
</g>
</svg>